<?xml version="1.0" encoding="utf-8"?>
<!-- Generator: Adobe Illustrator 16.0.0, SVG Export Plug-In . SVG Version: 6.00 Build 0)  -->
<!DOCTYPE svg PUBLIC "-//W3C//DTD SVG 1.1//EN" "http://www.w3.org/Graphics/SVG/1.1/DTD/svg11.dtd">
<svg version="1.1" id="圖層_1" xmlns="http://www.w3.org/2000/svg" xmlns:xlink="http://www.w3.org/1999/xlink" x="0px" y="0px"
	 width="400px" height="100px" viewBox="0 0 400 100" enable-background="new 0 0 400 100" xml:space="preserve">
<g>
	<path fill="#FFFFFF" d="M45.1,72.077h24.977v7.156H12.63v-7.156h24.1v-8.168H19.246v-6.953h17.484V49.26H22.553v-5.805
		c-2.903,1.958-5.805,3.645-8.573,5.063c-1.148-1.958-3.105-4.726-4.928-6.48c7.493-3.038,15.864-8.641,22.209-14.648h-8.979v-7.426
		H45.37c5.805,8.506,16.606,17.011,28.082,21.196c-1.688,1.755-4.186,5.063-5.4,7.358c-2.903-1.35-5.738-2.97-8.506-4.793v5.535
		H45.1v7.696h17.686v6.953H45.1V72.077z M57.251,42.172c-6.21-4.388-11.813-9.585-16.201-14.783
		c-4.456,5.198-10.463,10.463-16.606,14.783H57.251z"/>
	<path fill="#FFFFFF" d="M117.064,24.081c6.21,5.806,14.244,14.109,17.753,19.779L128,48.788c-0.877-1.485-2.092-3.24-3.51-5.13
		c-35.845,1.755-40.638,1.89-44.216,3.105c-0.405-1.62-1.688-5.603-2.632-7.695c1.755-0.473,3.375-1.755,5.603-3.916
		c2.362-2.093,9.721-10.261,14.311-18.361l8.101,3.443c-4.252,6.278-9.585,12.286-14.716,17.214l27.677-0.877
		c-2.632-2.971-5.333-5.806-7.83-8.303L117.064,24.081z M82.501,51.218H128v29.567h-8.641V77.41H90.737v3.443h-8.235V51.218z
		 M90.737,58.913v10.801h28.622V58.913H90.737z"/>
	<path fill="#FFFFFF" d="M195.98,24.486v54.949h-8.843v-5.333h-35.778v5.468h-8.438V24.486H195.98z M187.137,65.799V32.654h-35.778
		v33.145H187.137z"/>
	<path fill="#FFFFFF" d="M263.962,75.114H237.5v5.738h-8.168v-5.738h-26.125v-6.143h26.125v-2.633h-19.847V45.885h19.036V35.827
		h-21.669V20.098h53.531v15.729h-23.762v2.295h23.492v5.333h-23.492v2.43h20.859v20.454H237.5v2.633h26.395L263.962,75.114z
		 M222.108,25.769h-7.561v4.32h7.561V25.769z M217.248,53.648h32.065v-2.565h-32.065V53.648z M217.248,61.141h32.065v-2.565h-32.065
		V61.141z M229.467,30.089h7.628v-4.32h-7.628V30.089z M244.453,30.089h7.897v-4.32h-7.897V30.089z"/>
	<path fill="#FFFFFF" d="M291.305,35.354h-24.707v-6.345h10.733c-0.878-2.565-2.565-5.94-3.983-8.506l5.738-2.903
		c1.62,2.768,3.578,6.48,4.523,8.978l-4.118,2.431h11.813V35.354z M269.365,44.467v-6.076h19.576v6.076H269.365z M269.365,47.438
		h19.712v6.075h-19.712V47.438z M289.077,77.207h-13.501v2.835h-6.144V56.753h19.645V77.207z M275.576,63.166v7.561h7.155v-7.561
		H275.576z M322.56,21.313c-0.608,22.209-0.54,49.886,1.957,50.696c0.338,0.135,0.675-4.253,0.878-8.573
		c1.08,2.093,3.037,5.265,4.186,6.48c-1.013,9.856-4.456,11.948-8.641,10.193c-6.413-2.7-6.48-26.057-6.413-51.169h-8.168v17.821
		h6.48v7.493h-6.48v26.597h-7.493V54.255h-7.561v-7.493h7.561V28.941h-6.615v-7.628H322.56z"/>
	<path fill="#FFFFFF" d="M330.258,74.102c2.363-3.848,4.928-9.518,6.413-14.176l7.155,2.97c-1.688,4.658-3.982,10.801-6.143,14.784
		L330.258,74.102z M359.758,56.888h-19.374V23.811h15.526c0.675-2.228,1.417-4.658,1.755-6.615l9.721,1.215
		c-0.945,2.025-2.025,3.78-2.903,5.4h18.497v33.078h-19.441c2.835,2.768,5.67,6.278,7.088,8.911l-6.615,3.848
		c-1.351-2.97-4.929-7.493-8.033-10.666L359.758,56.888z M369.275,72.481c3.24,0,3.78-0.877,4.186-7.29
		c1.688,1.282,5.131,2.43,7.291,2.835c-0.945,9.451-3.309,11.746-10.869,11.746h-12.825c-9.451,0-11.948-2.228-11.948-9.451v-9.315
		h8.168v9.248c0,2.025,0.675,2.228,4.522,2.228H369.275z M348.146,33.059h26.665v-3.105h-26.665V33.059z M348.146,41.902h26.665
		v-3.105h-26.665V41.902z M348.146,50.813h26.665V47.64h-26.665V50.813z M385.14,58.643c3.104,4.456,6.345,10.329,7.493,14.446
		l-7.696,3.24c-0.944-3.916-3.915-10.058-6.885-14.716L385.14,58.643z"/>
</g>
<g>
	<path d="M28.999-63.103h-1.031v-1.14h1.163l0.204-1.643h-1.091v-1.151h1.235l0.3-2.303h1.02l-0.276,2.303h1.511l0.3-2.303h1.019
		l-0.264,2.303h1.067v1.151h-1.211l-0.204,1.643h1.139v1.14h-1.271L32.297-60.5h-1.055l0.312-2.603h-1.499L29.731-60.5h-1.043
		L28.999-63.103z M31.686-64.242l0.204-1.643h-1.511l-0.204,1.643H31.686z"/>
	<path d="M40.696-62.803h-1.056v2.303h-1.643v-2.303H34.22v-1.199l3.31-5.373h2.111v5.229h1.056V-62.803z M37.998-64.146v-1.811
		c0-0.516,0.048-1.319,0.072-1.835h-0.048c-0.216,0.468-0.456,0.959-0.708,1.439l-1.379,2.207H37.998z"/>
	<path d="M40.748-61.543l0.815-1.127c0.503,0.492,1.127,0.899,1.955,0.899c0.923,0,1.571-0.587,1.571-1.631
		c0-1.031-0.6-1.607-1.499-1.607c-0.528,0-0.815,0.132-1.331,0.468l-0.804-0.527l0.24-4.306h4.75v1.475h-3.227l-0.167,1.883
		c0.348-0.168,0.66-0.252,1.067-0.252c1.487,0,2.734,0.888,2.734,2.819c0,1.979-1.463,3.118-3.106,3.118
		C42.342-60.332,41.407-60.884,40.748-61.543z"/>
	<path d="M47.467-62.707c0-1.139,0.696-1.871,1.523-2.314v-0.06c-0.684-0.492-1.175-1.163-1.175-2.111
		c0-1.427,1.127-2.339,2.674-2.339c1.571,0,2.579,0.948,2.579,2.363c0,0.875-0.552,1.607-1.139,2.027v0.06
		c0.815,0.444,1.487,1.164,1.487,2.375c0,1.344-1.187,2.375-2.986,2.375C48.739-60.332,47.467-61.315,47.467-62.707z M51.773-62.767
		c0-0.924-0.815-1.308-1.967-1.775c-0.479,0.384-0.815,0.984-0.815,1.644c0,0.803,0.66,1.319,1.487,1.319
		C51.222-61.58,51.773-61.999,51.773-62.767z M51.629-67.061c0-0.719-0.432-1.235-1.175-1.235c-0.6,0-1.08,0.396-1.08,1.104
		c0,0.84,0.684,1.248,1.619,1.619C51.425-66.029,51.629-66.533,51.629-67.061z"/>
	<path d="M54.463-69.375h2.938c1.823,0,3.214,0.527,3.214,2.183c0,0.815-0.456,1.655-1.211,1.919v0.06
		c0.959,0.228,1.667,0.899,1.667,2.099c0,1.787-1.487,2.615-3.442,2.615h-3.167V-69.375z M57.27-65.765
		c1.127,0,1.619-0.456,1.619-1.164c0-0.779-0.528-1.091-1.595-1.091h-1.056v2.255H57.27z M57.473-61.867
		c1.211,0,1.871-0.432,1.871-1.355c0-0.863-0.647-1.223-1.871-1.223h-1.235v2.579H57.473z"/>
	<path d="M61.471-64.974c0-3.07,1.199-4.569,3.01-4.569c1.799,0,2.999,1.511,2.999,4.569c0,3.059-1.2,4.642-2.999,4.642
		C62.67-60.332,61.471-61.915,61.471-64.974z M65.813-64.974c0-2.482-0.576-3.202-1.331-3.202c-0.768,0-1.343,0.72-1.343,3.202
		c0,2.495,0.576,3.262,1.343,3.262C65.237-61.711,65.813-62.479,65.813-64.974z"/>
	<path d="M67.939-64.974c0-3.07,1.199-4.569,3.01-4.569c1.799,0,2.999,1.511,2.999,4.569c0,3.059-1.2,4.642-2.999,4.642
		C69.138-60.332,67.939-61.915,67.939-64.974z M72.28-64.974c0-2.482-0.576-3.202-1.331-3.202c-0.768,0-1.343,0.72-1.343,3.202
		c0,2.495,0.576,3.262,1.343,3.262C71.705-61.711,72.28-62.479,72.28-64.974z"/>
</g>
<path fill="none" stroke="#FFFFFF" stroke-width="2" stroke-miterlimit="10" d="M397,83.885C397,89.471,392.522,94,387,94H13
	C7.477,94,3,89.471,3,83.885V16.115C3,10.528,7.477,6,13,6h374c5.522,0,10,4.528,10,10.115V83.885z"/>
<g>
</g>
<g>
</g>
<g>
</g>
<g>
</g>
<g>
</g>
<g>
</g>
<g>
</g>
<g>
</g>
<g>
</g>
<g>
</g>
<g>
</g>
<g>
</g>
<g>
</g>
<g>
</g>
<g>
</g>
</svg>
